<svg width="20" height="20" viewBox="0 0 20 20" fill="none" xmlns="http://www.w3.org/2000/svg">
<path d="M8.20021 14.3999C8.06887 14.4001 7.9388 14.3743 7.81747 14.324C7.69614 14.2737 7.58594 14.1999 7.49321 14.1069L4.29301 10.9072C4.10725 10.7194 4.00341 10.4656 4.00415 10.2014C4.0049 9.93722 4.11018 9.68405 4.29699 9.49723C4.48381 9.31041 4.73697 9.20512 5.00116 9.20436C5.26536 9.2036 5.51912 9.30743 5.70701 9.49318L8.20018 11.9859L14.293 5.89309C14.4809 5.70752 14.7346 5.60384 14.9987 5.60468C15.2628 5.60552 15.5159 5.7108 15.7026 5.89755C15.8893 6.0843 15.9946 6.33734 15.9954 6.60144C15.9963 6.86554 15.8926 7.11923 15.707 7.30715L8.90721 14.1069C8.81447 14.1999 8.70428 14.2737 8.58294 14.324C8.46161 14.3743 8.33154 14.4001 8.20021 14.3999Z" fill="#181524"/>
<path d="M19 0H1C0.734784 0 0.48043 0.105357 0.292893 0.292893C0.105357 0.48043 0 0.734784 0 1V19C0 19.2652 0.105357 19.5196 0.292893 19.7071C0.48043 19.8946 0.734784 20 1 20H19C19.2652 20 19.5196 19.8946 19.7071 19.7071C19.8946 19.5196 20 19.2652 20 19V1C20 0.734784 19.8946 0.48043 19.7071 0.292893C19.5196 0.105357 19.2652 0 19 0ZM15.707 7.30713L8.9072 14.1069C8.81437 14.1998 8.70415 14.2735 8.58283 14.3238C8.46151 14.374 8.33148 14.3999 8.20016 14.3999C8.06885 14.3999 7.93882 14.374 7.8175 14.3238C7.69618 14.2735 7.58596 14.1998 7.49313 14.1069L4.293 10.9072C4.10725 10.7194 4.0034 10.4656 4.00415 10.2014C4.00489 9.9372 4.11017 9.68404 4.29699 9.49722C4.4838 9.31039 4.73696 9.2051 5.00116 9.20434C5.26535 9.20358 5.51912 9.30742 5.707 9.49316L8.20017 11.9858L14.293 5.89307C14.4809 5.70751 14.7346 5.60383 14.9987 5.60466C15.2628 5.6055 15.5159 5.71079 15.7026 5.89754C15.8893 6.08428 15.9946 6.33733 15.9954 6.60142C15.9963 6.86552 15.8926 7.11922 15.707 7.30713Z" fill="#353655"/>
</svg>
