<svg width="17" height="17" viewBox="0 0 17 17" fill="none" xmlns="http://www.w3.org/2000/svg">
<path d="M11.6152 5.38478C11.5372 5.30608 11.4443 5.24361 11.342 5.20098C11.2396 5.15835 11.1299 5.1364 11.019 5.1364C10.9082 5.1364 10.7984 5.15835 10.6961 5.20098C10.5938 5.24361 10.5009 5.30608 10.4229 5.38478L8.5 7.31605L6.57713 5.38478C6.41901 5.22666 6.20456 5.13784 5.98095 5.13784C5.75735 5.13784 5.54289 5.22666 5.38478 5.38478C5.22666 5.54289 5.13784 5.75735 5.13784 5.98095C5.13784 6.20456 5.22666 6.41901 5.38478 6.57713L7.31605 8.5L5.38478 10.4229C5.30608 10.5009 5.24361 10.5938 5.20098 10.6961C5.15835 10.7984 5.1364 10.9082 5.1364 11.019C5.1364 11.1299 5.15835 11.2396 5.20098 11.342C5.24361 11.4443 5.30608 11.5372 5.38478 11.6152C5.46284 11.6939 5.55571 11.7564 5.65803 11.799C5.76035 11.8416 5.87011 11.8636 5.98095 11.8636C6.0918 11.8636 6.20155 11.8416 6.30388 11.799C6.4062 11.7564 6.49907 11.6939 6.57713 11.6152L8.5 9.68395L10.4229 11.6152C10.5009 11.6939 10.5938 11.7564 10.6961 11.799C10.7984 11.8416 10.9082 11.8636 11.019 11.8636C11.1299 11.8636 11.2396 11.8416 11.342 11.799C11.4443 11.7564 11.5372 11.6939 11.6152 11.6152C11.6939 11.5372 11.7564 11.4443 11.799 11.342C11.8416 11.2396 11.8636 11.1299 11.8636 11.019C11.8636 10.9082 11.8416 10.7984 11.799 10.6961C11.7564 10.5938 11.6939 10.5009 11.6152 10.4229L9.68395 8.5L11.6152 6.57713C11.6939 6.49907 11.7564 6.4062 11.799 6.30388C11.8416 6.20155 11.8636 6.0918 11.8636 5.98095C11.8636 5.87011 11.8416 5.76035 11.799 5.65803C11.7564 5.55571 11.6939 5.46284 11.6152 5.38478ZM14.4365 2.56345C13.662 1.76147 12.7354 1.12178 11.711 0.681711C10.6865 0.241642 9.5847 0.0100054 8.46978 0.000317037C7.35486 -0.00937135 6.24917 0.203082 5.21723 0.625282C4.18529 1.04748 3.24777 1.67097 2.45937 2.45937C1.67097 3.24777 1.04748 4.18529 0.625282 5.21723C0.203082 6.24917 -0.00937135 7.35486 0.000317037 8.46978C0.0100054 9.5847 0.241642 10.6865 0.681711 11.711C1.12178 12.7354 1.76147 13.662 2.56345 14.4365C3.33803 15.2385 4.26457 15.8782 5.28902 16.3183C6.31346 16.7584 7.41529 16.99 8.53022 16.9997C9.64514 17.0094 10.7508 16.7969 11.7828 16.3747C12.8147 15.9525 13.7522 15.329 14.5406 14.5406C15.329 13.7522 15.9525 12.8147 16.3747 11.7828C16.7969 10.7508 17.0094 9.64514 16.9997 8.53022C16.99 7.41529 16.7584 6.31346 16.3183 5.28902C15.8782 4.26457 15.2385 3.33803 14.4365 2.56345ZM13.2526 13.2526C12.1543 14.3521 10.7088 15.0368 9.16233 15.19C7.61586 15.3432 6.06409 14.9555 4.77141 14.0929C3.47873 13.2303 2.52513 11.9462 2.07305 10.4594C1.62098 8.97254 1.69841 7.37494 2.29216 5.93879C2.88591 4.50263 3.95923 3.31677 5.32927 2.58323C6.69931 1.8497 8.2813 1.61388 9.80571 1.91595C11.3301 2.21802 12.7026 3.03929 13.6894 4.23984C14.6762 5.44039 15.2162 6.94595 15.2175 8.5C15.2204 9.38275 15.0483 10.2573 14.7111 11.0731C14.3738 11.8889 13.8781 12.6297 13.2526 13.2526Z" fill="#EF5B25"/>
</svg>
